<svg width="191" height="64" viewBox="0 0 191 64" fill="none" xmlns="http://www.w3.org/2000/svg">
<g clip-path="url(#clip0_431_914)">
<path d="M175.79 0.000208H15.2186C14.6333 0.000208 14.0551 0.000208 13.4713 0.003408C12.9826 0.006608 12.4979 0.015904 12.0045 0.023728C10.9327 0.0363709 9.86349 0.13089 8.80604 0.306464C7.75007 0.48586 6.72719 0.824073 5.77198 1.30966C4.81793 1.79936 3.9462 2.43568 3.18839 3.19552C2.42661 3.95323 1.7916 4.82903 1.30779 5.78926C0.822648 6.74758 0.486247 7.77451 0.310209 8.83458C0.132497 9.8933 0.0368681 10.9642 0.0241814 12.0378C0.00936931 12.5283 0.0078051 13.0205 0 13.5112V50.494C0.0078051 50.9908 0.00936931 51.472 0.0241814 51.969C0.036872 53.0425 0.132501 54.1134 0.310209 55.172C0.485761 56.2327 0.822182 57.2602 1.30779 58.2189C1.79138 59.176 2.42648 60.0483 3.18839 60.8018C3.94332 61.565 4.81562 62.2018 5.77198 62.6877C6.72718 63.1746 7.74995 63.5148 8.80604 63.697C9.86367 63.8712 10.9328 63.9657 12.0045 63.9799C12.4979 63.9908 12.9826 63.997 13.4713 63.997C14.055 64.0002 14.6334 64.0002 15.2186 64.0002H175.79C176.364 64.0002 176.947 64.0002 177.52 63.997C178.007 63.997 178.505 63.9908 178.992 63.9799C180.061 63.9665 181.128 63.8719 182.184 63.697C183.243 63.5136 184.27 63.1734 185.23 62.6877C186.185 62.2015 187.057 61.5648 187.811 60.8018C188.571 60.0454 189.207 59.1737 189.697 58.2189C190.179 57.2595 190.512 56.2321 190.685 55.172C190.863 54.1132 190.962 53.0426 190.981 51.969C190.988 51.472 190.988 50.9908 190.988 50.494C191 49.9127 191 49.3346 191 48.7439V15.258C191 14.6721 191 14.0908 190.988 13.5112C190.988 13.0205 190.988 12.5283 190.981 12.0377C190.962 10.9641 190.863 9.89338 190.685 8.83451C190.512 7.77506 190.178 6.74821 189.697 5.7892C188.712 3.86452 187.149 2.29785 185.23 1.30952C184.27 0.825116 183.243 0.486993 182.184 0.30632C181.129 0.129972 180.061 0.0354204 178.992 0.023504C178.505 0.015696 178.007 0.00632 177.52 0.0032C176.947 0 176.364 0.000208 175.79 0.000208Z" fill="#A6A6A6"/>
<path d="M13.4791 62.5999C12.9928 62.5999 12.5182 62.5937 12.0357 62.5828C11.0362 62.5697 10.039 62.4825 9.05231 62.3218C8.13228 62.163 7.24102 61.8675 6.40793 61.4452C5.58248 61.0263 4.82959 60.4771 4.17813 59.8186C3.51723 59.1679 2.96701 58.4131 2.54926 57.5842C2.1269 56.75 1.83461 55.8557 1.68256 54.9327C1.51835 53.9409 1.42951 52.938 1.4168 51.9327C1.40668 51.5953 1.39343 50.4717 1.39343 50.4717V13.5108C1.39343 13.5108 1.40754 12.4046 1.41688 12.0796C1.42905 11.0759 1.51738 10.0745 1.68109 9.08427C1.83342 8.1587 2.12594 7.2619 2.54852 6.42491C2.96474 5.59661 3.51191 4.84128 4.16882 4.18819C4.825 3.5289 5.58029 2.97687 6.40715 2.55224C7.23833 2.13125 8.1279 1.83787 9.04607 1.68193C10.036 1.51964 11.0366 1.4319 12.0396 1.41944L13.4799 1.3999H177.512L178.97 1.42022C179.964 1.43206 180.955 1.51902 181.936 1.68037C182.863 1.83826 183.762 2.13369 184.603 2.55693C186.26 3.41268 187.607 4.76656 188.458 6.42881C188.874 7.26003 189.162 8.14951 189.312 9.06709C189.478 10.0655 189.57 11.0747 189.589 12.0866C189.594 12.5397 189.594 13.0265 189.594 13.5108C189.607 14.1108 189.607 14.6819 189.607 15.2577V48.7436C189.607 49.3249 189.607 49.8921 189.594 50.4639C189.594 50.9842 189.594 51.4609 189.588 51.9514C189.569 52.9453 189.478 53.9365 189.315 54.917C189.166 55.8467 188.875 56.7479 188.453 57.589C188.032 58.4089 187.485 59.1571 186.832 59.8061C186.18 60.4682 185.426 61.0206 184.598 61.4421C183.76 61.8677 182.863 62.1643 181.936 62.3218C180.949 62.4834 179.952 62.5706 178.953 62.5828C178.485 62.5937 177.995 62.5999 177.52 62.5999L175.79 62.6031L13.4791 62.5999Z" fill="black"/>
<path d="M39.5345 32.481C39.5516 31.1455 39.9055 29.8361 40.5631 28.6746C41.2208 27.5131 42.1608 26.5371 43.2959 25.8377C42.5748 24.8054 41.6236 23.9559 40.5178 23.3566C39.4119 22.7573 38.1819 22.4248 36.9254 22.3854C34.2451 22.1034 31.6467 23.9931 30.2809 23.9931C28.8886 23.9931 26.7857 22.4134 24.5212 22.4601C23.0565 22.5075 21.629 22.9345 20.3778 23.6994C19.1266 24.4643 18.0945 25.541 17.3818 26.8247C14.2949 32.1821 16.5975 40.0558 19.5545 44.3864C21.0339 46.507 22.763 48.8757 25.0255 48.7917C27.2394 48.6996 28.0662 47.3765 30.7387 47.3765C33.3863 47.3765 34.162 48.7917 36.4704 48.7383C38.846 48.6996 40.3428 46.6083 41.7704 44.4677C42.8333 42.9567 43.6513 41.2867 44.194 39.5196C42.8138 38.9345 41.636 37.955 40.8074 36.7033C39.9788 35.4516 39.5361 33.9832 39.5345 32.481Z" fill="white"/>
<path d="M35.1744 19.5374C36.4697 17.9787 37.1079 15.9752 36.9534 13.9524C34.9744 14.1607 33.1464 15.1088 31.8336 16.6078C31.1918 17.34 30.7002 18.1919 30.3869 19.1148C30.0737 20.0376 29.945 21.0133 30.0081 21.986C30.9979 21.9962 31.9772 21.7811 32.8721 21.357C33.767 20.9329 34.5542 20.3107 35.1744 19.5374Z" fill="white"/>
<path d="M67.5201 43.4233H59.965L58.1506 48.7936H54.9506L62.1067 28.9248H65.4314L72.5875 48.7936H69.3329L67.5201 43.4233ZM60.7475 40.9452H66.7362L63.7839 32.2295H63.7013L60.7475 40.9452Z" fill="white"/>
<path d="M88.0423 41.5513C88.0423 46.0529 85.6388 48.9451 82.0116 48.9451C81.0928 48.9932 80.179 48.7811 79.3749 48.3329C78.5708 47.8846 77.9088 47.2185 77.4648 46.4107H77.3962V53.5857H74.4299V34.3076H77.3012V36.7169H77.3557C77.8201 35.913 78.4932 35.2503 79.3035 34.7993C80.1137 34.3484 81.0308 34.126 81.9571 34.156C85.6247 34.156 88.0423 37.0622 88.0423 41.5513ZM84.9935 41.5513C84.9935 38.6185 83.4815 36.6904 81.1746 36.6904C78.9082 36.6904 77.3838 38.6591 77.3838 41.5513C77.3838 44.4701 78.9082 46.4248 81.1746 46.4248C83.4815 46.4248 84.9935 44.5107 84.9935 41.5513Z" fill="white"/>
<path d="M103.948 41.5513C103.948 46.0529 101.544 48.945 97.9168 48.945C96.998 48.9932 96.0842 48.7811 95.2801 48.3328C94.476 47.8846 93.814 47.2185 93.37 46.4106H93.3014V53.5857H90.3351V34.3075H93.2063V36.7169H93.2609C93.7253 35.913 94.3984 35.2503 95.2087 34.7993C96.0189 34.3484 96.936 34.126 97.8622 34.156C101.53 34.156 103.948 37.0622 103.948 41.5513ZM100.899 41.5513C100.899 38.6185 99.3867 36.6904 97.0798 36.6904C94.8134 36.6904 93.289 38.6591 93.289 41.5513C93.289 44.4701 94.8134 46.4247 97.0798 46.4247C99.3867 46.4247 100.899 44.5107 100.899 41.5513Z" fill="white"/>
<path d="M114.46 43.2577C114.679 45.228 116.589 46.5217 119.198 46.5217C121.698 46.5217 123.497 45.2279 123.497 43.4513C123.497 41.9091 122.412 40.9857 119.843 40.3529L117.275 39.7326C113.635 38.8513 111.945 37.1451 111.945 34.3763C111.945 30.9482 114.926 28.5935 119.158 28.5935C123.346 28.5935 126.217 30.9482 126.314 34.3763H123.319C123.14 32.3935 121.505 31.1966 119.115 31.1966C116.726 31.1966 115.091 32.4076 115.091 34.1701C115.091 35.5748 116.135 36.4013 118.69 37.0341L120.874 37.5716C124.94 38.5356 126.63 40.1732 126.63 43.0794C126.63 46.7966 123.676 49.1247 118.978 49.1247C114.583 49.1247 111.615 46.8513 111.423 43.2575L114.46 43.2577Z" fill="white"/>
<path d="M133.032 30.8796V34.3078H135.78V36.6625H133.032V44.6484C133.032 45.889 133.582 46.4671 134.79 46.4671C135.116 46.4614 135.442 46.4385 135.766 46.3983V48.739C135.223 48.8407 134.671 48.8868 134.118 48.8765C131.193 48.8765 130.052 47.7749 130.052 44.9655V36.6625H127.95V34.3078H130.051V30.8796H133.032Z" fill="white"/>
<path d="M137.371 41.5515C137.371 36.9937 140.049 34.1296 144.225 34.1296C148.415 34.1296 151.08 36.9936 151.08 41.5515C151.08 46.1218 148.429 48.9734 144.225 48.9734C140.023 48.9734 137.371 46.1218 137.371 41.5515ZM148.058 41.5515C148.058 38.425 146.629 36.5796 144.225 36.5796C141.821 36.5796 140.394 38.439 140.394 41.5515C140.394 44.6906 141.821 46.5218 144.225 46.5218C146.629 46.5218 148.058 44.6906 148.058 41.5515Z" fill="white"/>
<path d="M153.526 34.3077H156.355V36.7733H156.424C156.615 36.0032 157.065 35.3227 157.698 34.8461C158.331 34.3694 159.108 34.1258 159.9 34.1561C160.241 34.1549 160.582 34.1921 160.916 34.267V37.0483C160.484 36.9161 160.034 36.8554 159.583 36.8686C159.152 36.8511 158.723 36.9272 158.324 37.0919C157.925 37.2565 157.566 37.5056 157.273 37.8223C156.979 38.1389 156.757 38.5155 156.623 38.9261C156.488 39.3368 156.443 39.7719 156.492 40.2014V48.7936H153.526L153.526 34.3077Z" fill="white"/>
<path d="M174.592 44.539C174.193 47.1687 171.638 48.9734 168.37 48.9734C164.166 48.9734 161.556 46.1499 161.556 41.6203C161.556 37.0765 164.18 34.1296 168.245 34.1296C172.243 34.1296 174.757 36.8828 174.757 41.2749V42.2937H164.551V42.4734C164.504 43.0065 164.57 43.5436 164.746 44.0489C164.922 44.5543 165.203 45.0163 165.571 45.4044C165.938 45.7925 166.384 46.0977 166.879 46.2998C167.373 46.5019 167.905 46.5962 168.438 46.5765C169.139 46.6423 169.843 46.4796 170.444 46.1125C171.045 45.7454 171.512 45.1935 171.775 44.539L174.592 44.539ZM164.565 40.2156H171.789C171.816 39.7362 171.744 39.2565 171.577 38.8066C171.409 38.3567 171.151 37.9462 170.819 37.601C170.486 37.2557 170.085 36.9832 169.642 36.8005C169.2 36.6177 168.724 36.5287 168.245 36.539C167.762 36.5361 167.283 36.6292 166.836 36.8127C166.389 36.9963 165.983 37.2668 165.641 37.6087C165.299 37.9505 165.027 38.3568 164.843 38.8043C164.658 39.2517 164.564 39.7314 164.565 40.2156Z" fill="white"/>
<path d="M60.3757 13.9696C60.9976 13.9248 61.6216 14.019 62.2028 14.2453C62.784 14.4716 63.3078 14.8244 63.7365 15.2782C64.1652 15.732 64.4881 16.2755 64.6818 16.8695C64.8756 17.4636 64.9355 18.0933 64.857 18.7133C64.857 21.7633 63.2126 23.5165 60.3757 23.5165H56.9356V13.9696H60.3757ZM58.4148 22.1664H60.2105C60.6549 22.193 61.0996 22.12 61.5122 21.9526C61.9249 21.7852 62.2951 21.5277 62.596 21.1988C62.8968 20.8699 63.1207 20.4779 63.2514 20.0513C63.3821 19.6247 63.4162 19.1743 63.3513 18.7328C63.4115 18.293 63.3739 17.8454 63.2412 17.4219C63.1086 16.9985 62.8841 16.6097 62.5839 16.2834C62.2838 15.9571 61.9153 15.7014 61.505 15.5346C61.0946 15.3678 60.6526 15.2941 60.2105 15.3187H58.4148V22.1664Z" fill="white"/>
<path d="M66.528 19.9111C66.4828 19.4376 66.5368 18.9599 66.6866 18.5086C66.8364 18.0573 67.0786 17.6423 67.3978 17.2903C67.7169 16.9384 68.1059 16.6571 68.5398 16.4647C68.9737 16.2723 69.443 16.1729 69.9174 16.1729C70.3919 16.1729 70.8612 16.2723 71.2951 16.4647C71.729 16.6571 72.118 16.9384 72.4371 17.2903C72.7563 17.6423 72.9985 18.0573 73.1483 18.5086C73.2981 18.9599 73.3521 19.4376 73.3069 19.9111C73.3529 20.385 73.2995 20.8634 73.1502 21.3154C73.0008 21.7675 72.7587 22.1832 72.4395 22.5358C72.1203 22.8885 71.731 23.1703 71.2966 23.3632C70.8623 23.556 70.3925 23.6557 69.9174 23.6557C69.4424 23.6557 68.9726 23.556 68.5383 23.3632C68.1039 23.1703 67.7146 22.8885 67.3954 22.5358C67.0762 22.1832 66.8341 21.7675 66.6847 21.3154C66.5353 20.8634 66.482 20.385 66.528 19.9111ZM71.8479 19.9111C71.8479 18.3493 71.148 17.4361 69.9198 17.4361C68.6868 17.4361 67.9932 18.3493 67.9932 19.9111C67.9932 21.4853 68.6869 22.3915 69.9198 22.3915C71.1481 22.3915 71.8479 21.479 71.8479 19.9111Z" fill="white"/>
<path d="M82.3179 23.5165H80.8465L79.361 18.2102H79.2488L77.7695 23.5165H76.3121L74.331 16.3118H75.7697L77.0572 21.8094H77.1632L78.6409 16.3118H80.0016L81.4793 21.8094H81.5915L82.8728 16.3118H84.2912L82.3179 23.5165Z" fill="white"/>
<path d="M85.9575 16.3117H87.323V17.4562H87.429C87.6088 17.0451 87.912 16.7006 88.2965 16.4705C88.681 16.2404 89.1275 16.1363 89.5738 16.1726C89.9235 16.1463 90.2746 16.1991 90.6012 16.3273C90.9278 16.4554 91.2214 16.6556 91.4603 16.9129C91.6992 17.1703 91.8773 17.4782 91.9814 17.8139C92.0854 18.1497 92.1128 18.5045 92.0615 18.8523V23.5163H90.6431V19.2094C90.6431 18.0515 90.1412 17.4758 89.0921 17.4758C88.8547 17.4647 88.6177 17.5052 88.3973 17.5945C88.1769 17.6838 87.9785 17.8199 87.8155 17.9933C87.6525 18.1667 87.5288 18.3734 87.4529 18.5992C87.3771 18.825 87.3508 19.0646 87.376 19.3015V23.5164H85.9575L85.9575 16.3117Z" fill="white"/>
<path d="M94.3217 13.4993H95.7401V23.5165H94.3217V13.4993Z" fill="white"/>
<path d="M97.7119 19.9109C97.6667 19.4374 97.7208 18.9597 97.8706 18.5084C98.0204 18.0571 98.2627 17.6421 98.5818 17.2901C98.901 16.9381 99.29 16.6569 99.724 16.4645C100.158 16.272 100.627 16.1726 101.102 16.1726C101.576 16.1726 102.045 16.272 102.479 16.4645C102.913 16.6569 103.302 16.9381 103.622 17.2901C103.941 17.6421 104.183 18.0571 104.333 18.5084C104.483 18.9597 104.537 19.4374 104.492 19.9109C104.538 20.3849 104.484 20.8633 104.335 21.3153C104.185 21.7674 103.943 22.1831 103.624 22.5357C103.305 22.8884 102.915 23.1702 102.481 23.363C102.047 23.5559 101.577 23.6555 101.102 23.6555C100.627 23.6555 100.157 23.5559 99.7225 23.363C99.2881 23.1702 98.8988 22.8884 98.5795 22.5357C98.2603 22.1831 98.0182 21.7674 97.8687 21.3153C97.7193 20.8633 97.6659 20.3849 97.7119 19.9109ZM103.032 19.9109C103.032 18.3492 102.332 17.436 101.104 17.436C99.8707 17.436 99.1771 18.3492 99.1771 19.911C99.1771 21.4852 99.8707 22.3914 101.104 22.3914C102.332 22.3914 103.032 21.4789 103.032 19.9109Z" fill="white"/>
<path d="M105.985 21.4791C105.985 20.1822 106.948 19.4346 108.658 19.3283L110.605 19.2158V18.5939C110.605 17.833 110.103 17.4033 109.133 17.4033C108.342 17.4033 107.793 17.6947 107.635 18.2041H106.262C106.407 16.9666 107.568 16.1729 109.199 16.1729C111.001 16.1729 112.017 17.0721 112.017 18.5939V23.5166H110.652V22.5041H110.539C110.312 22.8673 109.992 23.1634 109.612 23.3621C109.233 23.5608 108.808 23.6551 108.381 23.6353C108.079 23.6668 107.774 23.6345 107.485 23.5406C107.197 23.4467 106.931 23.2932 106.705 23.09C106.48 22.8869 106.299 22.6386 106.175 22.3611C106.051 22.0836 105.986 21.7832 105.985 21.4791ZM110.605 20.8635V20.2611L108.85 20.3736C107.86 20.44 107.411 20.7775 107.411 21.4127C107.411 22.0611 107.972 22.4385 108.744 22.4385C108.97 22.4614 109.198 22.4385 109.415 22.3712C109.632 22.3038 109.834 22.1934 110.007 22.0464C110.181 21.8995 110.323 21.719 110.426 21.5158C110.529 21.3126 110.59 21.0907 110.605 20.8635Z" fill="white"/>
<path d="M113.881 19.911C113.881 17.6345 115.049 16.1923 116.865 16.1923C117.314 16.1715 117.76 16.2794 118.15 16.5032C118.54 16.727 118.859 17.0576 119.069 17.4563H119.175V13.4993H120.593V23.5165H119.234V22.3782H119.122C118.896 22.7741 118.566 23.1006 118.168 23.3222C117.77 23.5437 117.32 23.652 116.865 23.6352C115.036 23.6353 113.881 22.193 113.881 19.911ZM115.347 19.911C115.347 21.4391 116.065 22.3587 117.267 22.3587C118.462 22.3587 119.201 21.4259 119.201 19.9173C119.201 18.4157 118.455 17.4696 117.267 17.4696C116.073 17.4696 115.347 18.3954 115.347 19.911Z" fill="white"/>
<path d="M126.462 19.9111C126.417 19.4376 126.471 18.9599 126.62 18.5086C126.77 18.0573 127.012 17.6423 127.332 17.2903C127.651 16.9384 128.04 16.6571 128.474 16.4647C128.907 16.2723 129.377 16.1729 129.851 16.1729C130.326 16.1729 130.795 16.2723 131.229 16.4647C131.663 16.6571 132.052 16.9384 132.371 17.2903C132.69 17.6423 132.932 18.0573 133.082 18.5086C133.232 18.9599 133.286 19.4376 133.241 19.9111C133.287 20.385 133.233 20.8634 133.084 21.3154C132.935 21.7675 132.692 22.1832 132.373 22.5358C132.054 22.8885 131.665 23.1703 131.23 23.3632C130.796 23.556 130.326 23.6557 129.851 23.6557C129.376 23.6557 128.906 23.556 128.472 23.3632C128.038 23.1703 127.648 22.8885 127.329 22.5358C127.01 22.1832 126.768 21.7675 126.618 21.3154C126.469 20.8634 126.416 20.385 126.462 19.9111ZM131.782 19.9111C131.782 18.3493 131.082 17.4361 129.854 17.4361C128.621 17.4361 127.927 18.3493 127.927 19.9111C127.927 21.4853 128.621 22.3915 129.854 22.3915C131.082 22.3915 131.782 21.479 131.782 19.9111Z" fill="white"/>
<path d="M135.144 16.3117H136.509V17.4562H136.615C136.795 17.0451 137.098 16.7006 137.483 16.4705C137.867 16.2404 138.314 16.1363 138.76 16.1726C139.11 16.1463 139.461 16.1991 139.788 16.3273C140.114 16.4554 140.408 16.6556 140.647 16.9129C140.886 17.1703 141.064 17.4782 141.168 17.8139C141.272 18.1497 141.299 18.5045 141.248 18.8523V23.5163H139.829V19.2094C139.829 18.0515 139.327 17.4758 138.278 17.4758C138.041 17.4647 137.804 17.5052 137.584 17.5945C137.363 17.6838 137.165 17.8199 137.002 17.9933C136.839 18.1667 136.715 18.3734 136.639 18.5992C136.563 18.825 136.537 19.0646 136.562 19.3015V23.5164H135.144V16.3117Z" fill="white"/>
<path d="M149.263 14.5181V16.3446H150.82V17.5423H149.263V21.247C149.263 22.0017 149.573 22.3321 150.279 22.3321C150.46 22.3315 150.64 22.3206 150.82 22.2993V23.4837C150.565 23.5294 150.307 23.5537 150.048 23.5563C148.471 23.5563 147.843 23.0001 147.843 21.611V17.5422H146.702V16.3446H147.843V14.5181H149.263Z" fill="white"/>
<path d="M152.757 13.4993H154.163V17.4696H154.276C154.464 17.0547 154.776 16.7081 155.168 16.4772C155.56 16.2462 156.014 16.1421 156.467 16.179C156.815 16.16 157.163 16.2182 157.486 16.3495C157.809 16.4807 158.099 16.6818 158.335 16.9384C158.571 17.1949 158.748 17.5006 158.853 17.8336C158.958 18.1666 158.989 18.5188 158.942 18.8649V23.5165H157.523V19.2157C157.523 18.0649 156.988 17.4821 155.986 17.4821C155.742 17.462 155.497 17.4956 155.267 17.5805C155.038 17.6654 154.829 17.7995 154.657 17.9735C154.485 18.1475 154.352 18.3571 154.269 18.5877C154.186 18.8184 154.154 19.0644 154.176 19.3086V23.5164H152.758L152.757 13.4993Z" fill="white"/>
<path d="M167.213 21.5712C167.02 22.2296 166.603 22.7992 166.034 23.1802C165.464 23.5613 164.779 23.7295 164.099 23.6555C163.625 23.6681 163.155 23.5771 162.72 23.3891C162.285 23.2011 161.896 22.9204 161.58 22.5666C161.264 22.2127 161.029 21.7942 160.89 21.3401C160.752 20.886 160.714 20.4072 160.779 19.9368C160.716 19.465 160.754 18.9851 160.892 18.5296C161.031 18.0741 161.265 17.6537 161.579 17.2968C161.893 16.9399 162.28 16.6548 162.714 16.4609C163.147 16.2669 163.618 16.1687 164.093 16.1727C166.092 16.1727 167.299 17.5423 167.299 19.8047V20.3009H162.224V20.3806C162.201 20.6449 162.235 20.9111 162.321 21.1619C162.407 21.4127 162.545 21.6426 162.725 21.8369C162.905 22.0313 163.124 22.1857 163.367 22.2903C163.611 22.395 163.873 22.4475 164.138 22.4446C164.477 22.4854 164.821 22.4241 165.125 22.2686C165.43 22.1131 165.681 21.8703 165.848 21.5711L167.213 21.5712ZM162.224 19.2493H165.854C165.872 19.0075 165.839 18.7646 165.758 18.5363C165.676 18.3079 165.548 18.0991 165.382 17.9234C165.215 17.7476 165.014 17.6087 164.79 17.5156C164.567 17.4225 164.327 17.3773 164.085 17.3829C163.839 17.3798 163.596 17.426 163.369 17.5187C163.141 17.6114 162.935 17.7488 162.762 17.9227C162.588 18.0967 162.451 18.3036 162.359 18.5315C162.266 18.7593 162.22 19.0034 162.224 19.2493Z" fill="white"/>
</g>
<defs>
<clipPath id="clip0_431_914">
<rect width="191" height="64" fill="white"/>
</clipPath>
</defs>
</svg>
