<svg width="26" height="29" viewBox="0 0 26 29" fill="none" xmlns="http://www.w3.org/2000/svg">
<g clip-path="url(#clip0_213_1857)">
<path d="M18.7778 0H7.22222C2.16667 0 0 2.9 0 7.25V21.75C0 26.1 2.16667 29 7.22222 29H18.7778C23.8333 29 26 26.1 26 21.75V7.25C26 2.9 23.8333 0 18.7778 0ZM7.22222 14.8625H13C13.5922 14.8625 14.0833 15.3555 14.0833 15.95C14.0833 16.5445 13.5922 17.0375 13 17.0375H7.22222C6.63 17.0375 6.13889 16.5445 6.13889 15.95C6.13889 15.3555 6.63 14.8625 7.22222 14.8625ZM18.7778 22.8375H7.22222C6.63 22.8375 6.13889 22.3445 6.13889 21.75C6.13889 21.1555 6.63 20.6625 7.22222 20.6625H18.7778C19.37 20.6625 19.8611 21.1555 19.8611 21.75C19.8611 22.3445 19.37 22.8375 18.7778 22.8375ZM22.3889 10.5125H19.5C17.3044 10.5125 15.5278 8.729 15.5278 6.525V3.625C15.5278 3.0305 16.0189 2.5375 16.6111 2.5375C17.2033 2.5375 17.6944 3.0305 17.6944 3.625V6.525C17.6944 7.5255 18.5033 8.3375 19.5 8.3375H22.3889C22.9811 8.3375 23.4722 8.8305 23.4722 9.425C23.4722 10.0195 22.9811 10.5125 22.3889 10.5125Z" fill="black"/>
</g>
<defs>
<clipPath id="clip0_213_1857">
<rect width="26" height="29" fill="white"/>
</clipPath>
</defs>
</svg>
