<svg xmlns="http://www.w3.org/2000/svg" width="27" height="27" viewBox="0 0 27 27" fill="none">
  <path d="M12.3752 2.23901C6.78401 2.23901 2.23901 6.78401 2.23901 12.3752C2.23901 17.9665 6.78401 22.5115 12.3752 22.5115C17.9665 22.5115 22.5115 17.9665 22.5115 12.3752C22.5115 6.78401 17.9665 2.23901 12.3752 2.23901ZM12.3752 14.9065H9.00026C8.53901 14.9065 8.15651 14.524 8.15651 14.0627C8.15651 13.6015 8.53901 13.219 9.00026 13.219H12.3752C12.8365 13.219 13.219 13.6015 13.219 14.0627C13.219 14.524 12.8365 14.9065 12.3752 14.9065ZM15.7502 11.5315H9.00026C8.53901 11.5315 8.15651 11.149 8.15651 10.6878C8.15651 10.2265 8.53901 9.84401 9.00026 9.84401H15.7502C16.2115 9.84401 16.594 10.2265 16.594 10.6878C16.594 11.149 16.2115 11.5315 15.7502 11.5315Z" fill="black"/>
  <path d="M24.7389 21.3188C24.3676 20.6325 23.5801 20.25 22.5226 20.25C21.7239 20.25 21.0376 20.5763 20.6326 21.1388C20.2276 21.7013 20.1376 22.455 20.3851 23.2087C20.8689 24.6712 21.7126 24.9975 22.1739 25.0538C22.2414 25.065 22.3089 25.065 22.3876 25.065C22.8826 25.065 23.6476 24.8513 24.3901 23.7375C24.9864 22.8713 25.0989 22.005 24.7389 21.3188Z" fill="black"/>
</svg>