<svg xmlns="http://www.w3.org/2000/svg" width="27" height="27" viewBox="0 0 27 27" fill="none">
  <path d="M19.125 2.25H7.875C4.77 2.25 2.25 4.75875 2.25 7.8525V14.58V15.705C2.25 18.7987 4.77 21.3075 7.875 21.3075H9.5625C9.86625 21.3075 10.2712 21.51 10.4625 21.7575L12.15 23.9962C12.8925 24.9862 14.1075 24.9862 14.85 23.9962L16.5375 21.7575C16.7512 21.4762 17.0887 21.3075 17.4375 21.3075H19.125C22.23 21.3075 24.75 18.7987 24.75 15.705V7.8525C24.75 4.75875 22.23 2.25 19.125 2.25ZM9 13.5C8.37 13.5 7.875 12.9937 7.875 12.375C7.875 11.7562 8.38125 11.25 9 11.25C9.61875 11.25 10.125 11.7562 10.125 12.375C10.125 12.9937 9.63 13.5 9 13.5ZM13.5 13.5C12.87 13.5 12.375 12.9937 12.375 12.375C12.375 11.7562 12.8813 11.25 13.5 11.25C14.1187 11.25 14.625 11.7562 14.625 12.375C14.625 12.9937 14.13 13.5 13.5 13.5ZM18 13.5C17.37 13.5 16.875 12.9937 16.875 12.375C16.875 11.7562 17.3813 11.25 18 11.25C18.6187 11.25 19.125 11.7562 19.125 12.375C19.125 12.9937 18.63 13.5 18 13.5Z" fill="black"/>
</svg>