<svg width="28" height="28" viewBox="0 0 28 28" fill="none" xmlns="http://www.w3.org/2000/svg">
<g clip-path="url(#clip0_936_4437)">
<path d="M8.12905 0.790527C4.07662 0.790527 0.790344 4.0768 0.790344 8.12924V19.8712C0.790344 23.9236 4.07662 27.2099 8.12905 27.2099H19.871C23.9234 27.2099 27.2097 23.9236 27.2097 19.8712V8.12924C27.2097 4.0768 23.9234 0.790527 19.871 0.790527H8.12905ZM22.8065 3.72601C23.6167 3.72601 24.2742 4.38356 24.2742 5.19375C24.2742 6.00395 23.6167 6.66149 22.8065 6.66149C21.9963 6.66149 21.3387 6.00395 21.3387 5.19375C21.3387 4.38356 21.9963 3.72601 22.8065 3.72601ZM14 6.66149C18.0525 6.66149 21.3387 9.94777 21.3387 14.0002C21.3387 18.0526 18.0525 21.3389 14 21.3389C9.94759 21.3389 6.66131 18.0526 6.66131 14.0002C6.66131 9.94777 9.94759 6.66149 14 6.66149ZM14 9.59698C12.8322 9.59698 11.7122 10.0609 10.8865 10.8867C10.0607 11.7124 9.5968 12.8324 9.5968 14.0002C9.5968 15.168 10.0607 16.288 10.8865 17.1138C11.7122 17.9395 12.8322 18.4034 14 18.4034C15.1678 18.4034 16.2878 17.9395 17.1136 17.1138C17.9393 16.288 18.4032 15.168 18.4032 14.0002C18.4032 12.8324 17.9393 11.7124 17.1136 10.8867C16.2878 10.0609 15.1678 9.59698 14 9.59698Z" fill="black"/>
</g>
<defs>
<clipPath id="clip0_936_4437">
<rect width="28" height="28" fill="white"/>
</clipPath>
</defs>
</svg>
