<svg width="26" height="26" viewBox="0 0 26 26" fill="none" xmlns="http://www.w3.org/2000/svg">
<g clip-path="url(#clip0_936_4439)">
<path d="M22.9048 0H3.09524C1.38667 0 0 1.38667 0 3.09524V22.9048C0 24.6133 1.38667 26 3.09524 26H22.9048C24.6133 26 26 24.6133 26 22.9048V3.09524C26 1.38667 24.6133 0 22.9048 0ZM8.04762 9.90476V21.6667H4.33333V9.90476H8.04762ZM4.33333 6.48143C4.33333 5.61476 5.07619 4.95238 6.19048 4.95238C7.30476 4.95238 8.00429 5.61476 8.04762 6.48143C8.04762 7.3481 7.35429 8.04762 6.19048 8.04762C5.07619 8.04762 4.33333 7.3481 4.33333 6.48143ZM21.6667 21.6667H17.9524C17.9524 21.6667 17.9524 15.9343 17.9524 15.4762C17.9524 14.2381 17.3333 13 15.7857 12.9752H15.7362C14.2381 12.9752 13.619 14.2505 13.619 15.4762C13.619 16.0395 13.619 21.6667 13.619 21.6667H9.90476V9.90476H13.619V11.4895C13.619 11.4895 14.8138 9.90476 17.2157 9.90476C19.6733 9.90476 21.6667 11.5948 21.6667 15.0181V21.6667Z" fill="black"/>
</g>
<defs>
<clipPath id="clip0_936_4439">
<rect width="26" height="26" fill="white"/>
</clipPath>
</defs>
</svg>
