<svg xmlns="http://www.w3.org/2000/svg" width="16" height="16" viewBox="0 0 16 16" fill="none">
<path d="M7.99999 9.46672C6.59999 9.46672 5.39999 8.33339 5.39999 6.86672C5.39999 5.40006 6.59999 4.26672 7.99999 4.26672C9.39999 4.26672 10.6 5.40006 10.6 6.86672C10.6 8.33339 9.39999 9.46672 7.99999 9.46672ZM7.99999 5.26672C7.13333 5.26672 6.39999 6.00006 6.39999 6.86672C6.39999 7.73339 7.13333 8.46672 7.99999 8.46672C8.86666 8.46672 9.59999 7.73339 9.59999 6.86672C9.59999 6.00006 8.86666 5.26672 7.99999 5.26672Z" fill="black"/>
<path d="M7.99999 15.2C6.99999 15.2 5.99999 14.8 5.26665 14.0667C3.33332 12.2 1.13332 9.13338 1.93332 5.53338C2.66666 2.26672 5.53332 0.800049 7.99999 0.800049C10.4667 0.800049 13.3333 2.26672 14.0667 5.53338C14.8667 9.13338 12.7333 12.1334 10.7333 14C9.99999 14.8 8.99999 15.2 7.99999 15.2ZM2.93332 5.80005C2.19999 8.93338 4.13332 11.6 5.93332 13.3334C7.06665 14.4667 8.86666 14.4667 10.0667 13.3334C11.8667 11.6 13.8 8.93338 13.1333 5.80005C12.4667 2.86672 9.99999 1.86672 8.06666 1.86672C6.06666 1.86672 3.53332 2.86672 2.93332 5.80005Z" fill="black"/>
</svg>