<svg width="25" height="25" viewBox="0 0 25 25" fill="none" xmlns="http://www.w3.org/2000/svg">
<g clip-path="url(#clip0_456_732)">
<path d="M18.5 0H15.25C11.25 0 8.75 2.5 8.75 6.5V11.5625H14.3L11.7125 8.975C11.525 8.7875 11.4375 8.55 11.4375 8.3125C11.4375 8.075 11.525 7.8375 11.7125 7.65C12.075 7.2875 12.675 7.2875 13.0375 7.65L17.225 11.8375C17.5875 12.2 17.5875 12.8 17.225 13.1625L13.0375 17.35C12.675 17.7125 12.075 17.7125 11.7125 17.35C11.35 16.9875 11.35 16.3875 11.7125 16.025L14.3 13.4375H8.75V18.5C8.75 22.5 11.25 25 15.25 25H18.4875C22.4875 25 24.9875 22.5 24.9875 18.5V6.5C25 2.5 22.5 0 18.5 0Z" fill="#292D32"/>
<path d="M0.9375 11.5625C0.425 11.5625 0 11.9875 0 12.5C0 13.0125 0.425 13.4375 0.9375 13.4375H8.75V11.5625H0.9375Z" fill="#292D32"/>
</g>
<defs>
<clipPath id="clip0_456_732">
<rect width="25" height="25" fill="white"/>
</clipPath>
</defs>
</svg>
