<svg width="20" height="20" viewBox="0 0 20 20" fill="none" xmlns="http://www.w3.org/2000/svg">
<g clip-path="url(#clip0_856_3248)">
<path d="M15.8816 14.3909L16.2362 17.2636C16.3271 18.0181 15.518 18.5454 14.8725 18.1545L11.0634 15.8909C10.6453 15.8909 10.2362 15.8636 9.83616 15.8091C10.5089 15.0181 10.9089 14.0181 10.9089 12.9363C10.9089 10.3545 8.67252 8.2636 5.90886 8.2636C4.85431 8.2636 3.88159 8.5636 3.0725 9.09087C3.04522 8.8636 3.03613 8.63633 3.03613 8.39997C3.03613 4.26359 6.62704 0.909058 11.0634 0.909058C15.4998 0.909058 19.0907 4.26359 19.0907 8.39997C19.0907 10.8545 17.8271 13.0272 15.8816 14.3909Z" stroke="#292D32" stroke-width="1.5" stroke-linecap="round" stroke-linejoin="round"/>
<path d="M10.9092 12.9363C10.9092 14.0181 10.5092 15.0182 9.83645 15.8091C8.93645 16.9 7.50918 17.5999 5.90918 17.5999L3.53645 19.009C3.13645 19.2545 2.62736 18.9181 2.68191 18.4545L2.90918 16.6637C1.691 15.8182 0.90918 14.4636 0.90918 12.9363C0.90918 11.3363 1.76373 9.92731 3.07282 9.09094C3.88191 8.56367 4.85463 8.26367 5.90918 8.26367C8.67282 8.26367 10.9092 10.3545 10.9092 12.9363Z" stroke="#292D32" stroke-width="1.5" stroke-linecap="round" stroke-linejoin="round"/>
</g>
<defs>
<clipPath id="clip0_856_3248">
<rect width="20" height="20" fill="white"/>
</clipPath>
</defs>
</svg>
