<svg width="26" height="27" viewBox="0 0 26 27" fill="none" xmlns="http://www.w3.org/2000/svg">
<g clip-path="url(#clip0_213_1864)">
<path d="M18.4467 0H7.56571C2.83371 0 0.0126953 2.9295 0.0126953 7.8435V19.143C0.0126953 24.057 2.83371 26.9865 7.56571 26.9865H18.4467C23.1787 26.9865 25.9997 24.057 25.9997 19.143V7.8435C25.9997 2.9295 23.1787 0 18.4467 0ZM11.6997 7.425C11.6997 7.803 11.4137 8.1 11.0497 8.1H9.0997C8.3847 8.1 7.7997 8.7075 7.7997 9.45V11.475C7.7997 11.853 7.5137 12.15 7.1497 12.15H4.5497C4.1857 12.15 3.8997 11.853 3.8997 11.475V9.45C3.8997 6.4665 6.2267 4.05 9.0997 4.05H11.0497C11.4137 4.05 11.6997 4.347 11.6997 4.725V7.425ZM22.0997 17.55C22.0997 20.5335 19.7727 22.95 16.8997 22.95H14.9497C14.5857 22.95 14.2997 22.653 14.2997 22.275V19.575C14.2997 19.197 14.5857 18.9 14.9497 18.9H16.8997C17.6147 18.9 18.1997 18.2925 18.1997 17.55V15.525C18.1997 15.147 18.4857 14.85 18.8497 14.85H21.4497C21.8137 14.85 22.0997 15.147 22.0997 15.525V17.55Z" fill="black"/>
</g>
<defs>
<clipPath id="clip0_213_1864">
<rect width="26" height="27" fill="white"/>
</clipPath>
</defs>
</svg>
