<svg xmlns="http://www.w3.org/2000/svg" width="27" height="28" viewBox="0 0 27 28" fill="none">
  <path d="M12.195 4.14176C12.195 3.70496 11.8463 3.35776 11.4075 3.35776H10.3612C5.74875 3.35776 4.3425 4.75776 4.3425 9.34976L4.3425 19.7658C4.3425 24.3578 5.74875 25.7578 10.3612 25.7578H10.89C11.3288 25.7578 11.6775 25.4106 11.6775 24.9738C11.6775 23.9658 12.4988 23.1482 13.5113 23.1482C14.5238 23.1482 15.3338 23.9658 15.3338 24.9738C15.3338 25.4106 15.6825 25.7578 16.1213 25.7578H16.65C21.2625 25.7578 22.6688 24.3578 22.6688 19.7658V9.34976C22.6688 4.75776 21.2625 3.35776 16.65 3.35776C16.2113 3.35776 15.8625 3.70496 15.8625 4.14176C15.8625 5.14976 15.0413 5.96735 14.0288 5.96735C13.0163 5.96735 12.195 5.14976 12.195 4.14176ZM9.99 17.9178C9.99 17.3018 10.4962 16.7978 11.115 16.7978C11.7338 16.7978 12.24 17.2906 12.24 17.9178C12.24 18.5338 11.7338 19.0378 11.115 19.0378C10.4962 19.0378 9.99 18.545 9.99 17.9178ZM17.865 11.1978C17.865 11.825 17.3588 12.329 16.74 12.329C16.1213 12.329 15.615 11.825 15.615 11.209C15.615 10.593 16.1213 10.089 16.74 10.089C17.3588 10.089 17.865 10.5706 17.865 11.1978ZM10.665 10.1898L18.2363 17.7274C18.405 17.8954 18.4838 18.1082 18.4838 18.321C18.4838 18.5338 18.405 18.7466 18.2363 18.9146C17.91 19.2394 17.37 19.2394 17.0438 18.9146L9.4725 11.377C9.14625 11.0522 9.14625 10.5146 9.4725 10.1898C9.79875 9.86496 10.3387 9.86496 10.665 10.1898Z" fill="black"/>
</svg>