<svg width="16" height="16" viewBox="0 0 16 16" fill="none" xmlns="http://www.w3.org/2000/svg">
<g clip-path="url(#clip0_78_186)">
<path d="M15.6837 14.5526L12.7315 11.6315C14.972 8.84207 14.7611 4.7368 12.2043 2.18417C10.86 0.842067 9.09393 0.105225 7.19607 0.105225C5.29821 0.105225 3.50579 0.842067 2.16147 2.18417C0.817158 3.52628 0.0791016 5.28943 0.0791016 7.21049C0.0791016 9.13154 0.817158 10.8947 2.16147 12.2368C3.50579 13.5526 5.27185 14.3158 7.19607 14.3158C8.80398 14.3158 10.3855 13.7631 11.6244 12.7631L14.5503 15.6842C14.7084 15.8421 14.8929 15.921 15.1038 15.921C15.3147 15.921 15.5256 15.8421 15.6574 15.6842C15.9737 15.3684 15.9737 14.8684 15.6837 14.5526ZM12.7315 7.21049C12.7315 8.68417 12.1516 10.0789 11.0972 11.1052C10.0429 12.1315 8.67218 12.7368 7.19607 12.7368C5.71996 12.7368 4.32292 12.1579 3.29492 11.1052C2.26691 10.0526 1.66065 8.68417 1.66065 7.21049C1.66065 5.7368 2.24055 4.34207 3.29492 3.31575C4.34928 2.28944 5.6936 1.68417 7.19607 1.68417C8.67218 1.68417 10.0692 2.26312 11.0972 3.31575C12.1252 4.36838 12.7315 5.71049 12.7315 7.21049Z" fill="black"/>
</g>
<defs>
<clipPath id="clip0_78_186">
<rect width="16" height="16" fill="white"/>
</clipPath>
</defs>
</svg>
