<svg width="76" height="73" viewBox="0 0 76 73" fill="none" xmlns="http://www.w3.org/2000/svg">
<g clip-path="url(#clip0_213_1828)">
<path d="M34.381 0C15.4171 0 0 15.3919 0 34.3246C0 53.2573 15.4171 68.6492 34.381 68.6492C53.3448 68.6492 68.7619 53.2573 68.7619 34.3246C68.7619 15.3919 53.3448 0 34.381 0ZM34.381 42.4541H23.5238C22.04 42.4541 20.8095 41.2256 20.8095 39.7443C20.8095 38.2629 22.04 37.0344 23.5238 37.0344H34.381C35.8648 37.0344 37.0952 38.2629 37.0952 39.7443C37.0952 41.2256 35.8648 42.4541 34.381 42.4541ZM45.2381 31.6148H23.5238C22.04 31.6148 20.8095 30.3863 20.8095 28.9049C20.8095 27.4235 22.04 26.1951 23.5238 26.1951H45.2381C46.7219 26.1951 47.9524 27.4235 47.9524 28.9049C47.9524 30.3863 46.7219 31.6148 45.2381 31.6148Z" fill="black"/>
<path d="M69.8489 72.2573C69.1975 72.2573 68.5461 72.0043 68.0756 71.5346L61.3442 64.8143C60.367 63.8387 60.367 62.2489 61.3442 61.2373C62.3213 60.2617 63.9137 60.2617 64.927 61.2373L71.6585 67.9577C72.6356 68.9332 72.6356 70.523 71.6585 71.5346C71.1518 72.0043 70.5004 72.2573 69.8489 72.2573Z" fill="black"/>
</g>
<defs>
<clipPath id="clip0_213_1828">
<rect width="76" height="72.2623" fill="white"/>
</clipPath>
</defs>
</svg>
