<svg width="58" height="40" viewBox="0 0 58 40" fill="none" xmlns="http://www.w3.org/2000/svg">
<g clip-path="url(#clip0_305_274)">
<path d="M0.731458 8.29364C0.731458 6.65343 1.11715 5.07936 1.80873 3.73015C2.97911 1.45502 5.37305 0.0661279 7.9399 0.0661279H9.53586C10.6929 0.0661279 11.8234 0.370361 12.8209 0.939144L12.8342 0.952371V9.04761C11.9963 7.65872 10.6131 6.15078 8.96397 6.15078C8.12609 6.15078 7.24831 6.74602 7.24831 7.73809C7.24831 10.4365 13.5258 11.1508 13.5258 18.0555C13.5258 19.5635 13.2332 21.0053 12.7012 22.2619C11.5973 24.8413 9.00387 26.4947 6.18434 26.4947H3.75049C2.75301 26.4947 1.76883 26.2963 0.864455 25.8862H0.851156V17.5926C1.83533 19.0608 3.2584 20.4894 5.01396 20.4894C5.95824 20.4894 6.94242 19.8942 6.94242 18.7434C6.94242 15.9127 0.731458 15 0.731458 8.29364ZM24.1389 26.4815L25.8679 20.1323L21.5854 20.1852V16.1376L26.3999 16.164L27.8628 10.2116L21.5854 10.1455V6.30951L29.0598 6.2566L30.6558 0.0396729L14.4036 0.0793554V26.5476L24.1389 26.4815ZM46.4292 26.5476H39.008L38.4494 23.1746H33.6216L33.0231 26.5476H25.6019L32.0257 0.0793554H40.8035L46.4292 26.5476ZM37.6115 17.5397C37.0529 13.8492 36.5742 10.1587 36.255 6.42856C36.0954 7.65872 35.9757 8.92856 35.8161 10.1587C35.457 12.619 35.058 15.0794 34.5792 17.5397H37.6115ZM57.9202 6.42856V0.0793554L42.2265 0.0396729L43.6895 6.38888L47.4267 6.42856V26.5476H54.1963V6.42856H57.9202ZM15.5739 39.7354L14.1376 28.373H9.24327C8.76448 30.3836 8.16599 32.3809 7.8734 34.418C7.6739 32.3677 7.16851 30.3968 6.72962 28.373H1.80873L0.0797729 39.7354H4.33568L4.69477 35.0132C4.76127 34.1799 4.73467 33.3201 4.76127 32.4868C4.82777 33.082 4.89426 33.6772 5.02726 34.2593L6.17104 39.7222H9.40286L10.6397 34.6693C10.8126 33.955 10.9456 33.2143 11.0387 32.4868C11.0786 33.1746 11.0786 33.8624 11.1318 34.5503L11.4377 39.7354H15.5739ZM27.4772 39.7354H23.3808L23.075 38.2936H20.415L20.0825 39.7354H15.9862L19.5372 28.373H24.3783L27.4772 39.7354ZM22.6095 35.8598C22.3036 34.2725 22.0376 32.6852 21.8647 31.0846C21.7716 31.6137 21.7051 32.1561 21.6253 32.6852C21.4258 33.7434 21.1997 34.8016 20.947 35.8598H22.6095ZM34.9915 31.0979V28.373H25.5354L26.2669 31.0979H28.847V39.7354H32.8103V31.0979H34.9915ZM43.623 36.2434C43.0112 36.6667 42.4127 36.9709 41.5482 36.9709C39.5267 36.9709 39.0346 35.3042 39.0346 34.0344C39.0346 32.7645 39.5134 31.0053 41.6147 31.0053C42.4127 31.0053 42.9181 31.2566 43.4501 31.6931V28.4524C42.7186 28.2143 42.2797 28.1614 41.495 28.1614C37.0662 28.1614 35.0048 30.9656 35.0048 34.0873C35.0048 36.9841 36.8135 39.9339 41.0429 39.9339C41.9871 39.9339 42.5457 39.8148 43.3969 39.5238L43.623 36.2434ZM54.2096 39.7354V28.373H50.2462V32.3942H48.3577V28.373H44.3944V39.7354H48.3577V35.1719H50.2462V39.7354H54.2096Z" fill="black"/>
<mask id="mask0_305_274" style="mask-type:luminance" maskUnits="userSpaceOnUse" x="0" y="0" width="58" height="40">
<path d="M0.731458 8.29364C0.731458 6.65343 1.11715 5.07936 1.80873 3.73015C2.97911 1.45502 5.37305 0.0661279 7.9399 0.0661279H9.53586C10.6929 0.0661279 11.8234 0.370361 12.8209 0.939144L12.8342 0.952371V9.04761C11.9963 7.65872 10.6131 6.15078 8.96397 6.15078C8.12609 6.15078 7.24831 6.74602 7.24831 7.73809C7.24831 10.4365 13.5258 11.1508 13.5258 18.0555C13.5258 19.5635 13.2332 21.0053 12.7012 22.2619C11.5973 24.8413 9.00387 26.4947 6.18434 26.4947H3.75049C2.75301 26.4947 1.76883 26.2963 0.864455 25.8862H0.851156V17.5926C1.83533 19.0608 3.2584 20.4894 5.01396 20.4894C5.95824 20.4894 6.94242 19.8942 6.94242 18.7434C6.94242 15.9127 0.731458 15 0.731458 8.29364ZM24.1389 26.4815L25.8679 20.1323L21.5854 20.1852V16.1376L26.3999 16.164L27.8628 10.2116L21.5854 10.1455V6.30951L29.0598 6.2566L30.6558 0.0396729L14.4036 0.0793554V26.5476L24.1389 26.4815ZM46.4292 26.5476H39.008L38.4494 23.1746H33.6216L33.0231 26.5476H25.6019L32.0257 0.0793554H40.8035L46.4292 26.5476ZM37.6115 17.5397C37.0529 13.8492 36.5742 10.1587 36.255 6.42856C36.0954 7.65872 35.9757 8.92856 35.8161 10.1587C35.457 12.619 35.058 15.0794 34.5792 17.5397H37.6115ZM57.9202 6.42856V0.0793554L42.2265 0.0396729L43.6895 6.38888L47.4267 6.42856V26.5476H54.1963V6.42856H57.9202ZM15.5739 39.7354L14.1376 28.373H9.24327C8.76448 30.3836 8.16599 32.3809 7.8734 34.418C7.6739 32.3677 7.16851 30.3968 6.72962 28.373H1.80873L0.0797729 39.7354H4.33568L4.69477 35.0132C4.76127 34.1799 4.73467 33.3201 4.76127 32.4868C4.82777 33.082 4.89426 33.6772 5.02726 34.2593L6.17104 39.7222H9.40286L10.6397 34.6693C10.8126 33.955 10.9456 33.2143 11.0387 32.4868C11.0786 33.1746 11.0786 33.8624 11.1318 34.5503L11.4377 39.7354H15.5739ZM27.4772 39.7354H23.3808L23.075 38.2936H20.415L20.0825 39.7354H15.9862L19.5372 28.373H24.3783L27.4772 39.7354ZM22.6095 35.8598C22.3036 34.2725 22.0376 32.6852 21.8647 31.0846C21.7716 31.6137 21.7051 32.1561 21.6253 32.6852C21.4258 33.7434 21.1997 34.8016 20.947 35.8598H22.6095ZM34.9915 31.0979V28.373H25.5354L26.2669 31.0979H28.847V39.7354H32.8103V31.0979H34.9915ZM43.623 36.2434C43.0112 36.6667 42.4127 36.9709 41.5482 36.9709C39.5267 36.9709 39.0346 35.3042 39.0346 34.0344C39.0346 32.7645 39.5134 31.0053 41.6147 31.0053C42.4127 31.0053 42.9181 31.2566 43.4501 31.6931V28.4524C42.7186 28.2143 42.2797 28.1614 41.495 28.1614C37.0662 28.1614 35.0048 30.9656 35.0048 34.0873C35.0048 36.9841 36.8135 39.9339 41.0429 39.9339C41.9871 39.9339 42.5457 39.8148 43.3969 39.5238L43.623 36.2434ZM54.2096 39.7354V28.373H50.2462V32.3942H48.3577V28.373H44.3944V39.7354H48.3577V35.1719H50.2462V39.7354H54.2096Z" fill="white"/>
</mask>
<g mask="url(#mask0_305_274)">
<path d="M64.6232 -1.29626H-4.09631V41.7196H64.6232V-1.29626Z" fill="black"/>
</g>
</g>
<defs>
<clipPath id="clip0_305_274">
<rect width="58" height="40" fill="white"/>
</clipPath>
</defs>
</svg>
