<?xml version="1.0" encoding="utf-8"?>
<!-- Generator: Adobe Illustrator 28.1.0, SVG Export Plug-In . SVG Version: 6.00 Build 0)  -->
<svg version="1.1" id="Layer_1" xmlns="http://www.w3.org/2000/svg" xmlns:xlink="http://www.w3.org/1999/xlink" x="0px" y="0px"
	 viewBox="0 0 417 208.5" style="enable-background:new 0 0 417 208.5;" xml:space="preserve">
<style type="text/css">
	.st0{clip-path:url(#SVGID_00000074443342332677658480000015239573765330797211_);}
</style>
<g>
	<defs>
		<path id="SVGID_1_" d="M3.55,43.05c0-8.54,1.99-16.74,5.58-23.75c6.05-11.84,18.44-19.1,31.74-19.1h8.31
			c5.98,0,11.86,1.56,17.06,4.54l0.1,0.06v42.19c-4.35-7.24-11.53-15.1-20.04-15.1c-4.35,0-8.89,3.1-8.89,8.27
			c0,14.06,32.52,17.79,32.52,53.77c0,7.89-1.5,15.35-4.29,21.9c-5.74,13.47-19.15,22.05-33.78,22.05H19.16
			c-5.15,0-10.27-1.03-14.96-3.16c-0.03-0.01-0.06-0.03-0.08-0.03V91.46c5.11,7.65,12.48,15.1,21.56,15.1
			c4.92,0,10.02-3.1,10.02-9.1c0-14.68-32.14-19.44-32.14-54.4L3.55,43.05z M124.89,137.89l8.96-33.09l-22.23,0.3V84l24.98,0.11
			l7.58-31.02l-32.57-0.32V32.71l38.77-0.3L158.67,0L74.39,0.24v137.95L124.89,137.89z M240.41,138.19h-38.47l-2.9-17.58h-25.03
			l-3.1,17.58h-38.47l33.3-137.95h45.5L240.41,138.19z M194.7,91.24c-2.9-19.23-5.38-38.47-7.03-57.91
			c-0.83,6.41-1.45,13.03-2.28,19.44c-1.86,12.82-3.93,25.65-6.41,38.47H194.7z M300,33.33V0.24L218.65,0l7.58,33.09l19.39,0.23
			v104.86h35.08V33.33L300,33.33L300,33.33z M80.43,206.94l-7.42-59.23H47.67c-2.51,10.48-5.59,20.87-7.08,31.52
			c-1.03-10.66-3.65-20.96-5.94-31.52H9.08l-8.91,59.23H22.2l1.83-24.6c0.34-4.35,0.23-8.79,0.34-13.14
			c0.34,3.11,0.68,6.21,1.37,9.23l5.94,28.5h16.78l6.39-26.37c0.92-3.73,1.6-7.55,2.05-11.37c0.23,3.55,0.23,7.19,0.45,10.74l1.6,27
			L80.43,206.94L80.43,206.94z M142.18,206.93h-21.23l-1.6-7.54h-13.81l-1.72,7.54H82.59l18.39-59.23h25.12l16.09,59.23
			L142.18,206.93z M116.96,186.78c-1.6-8.26-2.97-16.52-3.89-24.86c-0.46,2.74-0.8,5.59-1.25,8.34c-1.03,5.51-2.17,11.01-3.54,16.52
			H116.96z M181.11,161.91V147.7h-49.05l3.81,14.21h13.38v45.02h20.55v-45.02H181.11z M225.87,188.73
			c-3.2,2.22-6.28,3.82-10.73,3.82c-10.5,0-13.02-8.7-13.02-15.27s2.51-15.81,13.36-15.81c4.11,0,6.74,1.33,9.48,3.55v-16.87
			c-3.76-1.24-6.05-1.51-10.16-1.51c-22.95,0-33.68,14.65-33.68,30.9c0,15.1,9.36,30.46,31.29,30.46c4.91,0,7.76-0.62,12.22-2.13
			L225.87,188.73L225.87,188.73z M280.74,206.94v-59.23h-20.55v20.96h-9.82v-20.96h-20.55v59.23h20.55v-23.8h9.82v23.8
			L280.74,206.94L280.74,206.94z"/>
	</defs>
	<clipPath id="SVGID_00000097488448762872008540000015790113485006131880_">
		<use xlink:href="#SVGID_1_"  style="overflow:visible;"/>
	</clipPath>
	<g style="clip-path:url(#SVGID_00000097488448762872008540000015790113485006131880_);">
		<rect x="-21.52" y="-6.92" width="356.22" height="224.21"/>
	</g>
</g>
<g>
	<path d="M315.32,31.8c-0.28,0-0.42-0.14-0.42-0.41V0.58c0-0.28,0.14-0.41,0.42-0.41h11.48c3.45,0,6,0.77,7.63,2.32
		c1.41,1.33,2.11,3.19,2.11,5.6c0,1.6-0.34,3.01-1.02,4.21c-0.68,1.2-1.61,2.05-2.8,2.55c-0.22,0.08-0.33,0.19-0.33,0.33
		c0,0.14,0.12,0.24,0.37,0.29c1.71,0.41,3.03,1.26,3.96,2.55c0.93,1.29,1.39,2.91,1.39,4.87c0,2.54-0.77,4.59-2.32,6.13
		c-1.05,1-2.33,1.71-3.85,2.13c-1.52,0.43-3.07,0.64-4.64,0.64H315.32z M326.81,13.89c1.85,0,3.29-0.46,4.33-1.37
		c1.04-0.91,1.55-2.18,1.55-3.81c0-1.49-0.44-2.65-1.33-3.48c-1.11-1.08-2.9-1.62-5.39-1.62h-6.84c-0.28,0-0.42,0.14-0.42,0.41v9.45
		c0,0.28,0.14,0.41,0.42,0.41H326.81z M326.89,28.36c1.1,0,2.17-0.1,3.19-0.29c1.02-0.19,1.92-0.65,2.69-1.37
		c1.02-0.94,1.53-2.29,1.53-4.06c0-2.29-0.68-3.76-2.03-4.39c-1.35-0.64-2.88-0.95-4.56-0.95h-8.58c-0.28,0-0.42,0.14-0.42,0.41
		v10.24c0,0.28,0.14,0.41,0.42,0.41H326.89z"/>
	<path d="M343.92,31.8c-0.28,0-0.42-0.14-0.42-0.41V0.58c0-0.28,0.14-0.41,0.42-0.41h19.61c0.28,0,0.41,0.14,0.41,0.41V3.2
		c0,0.28-0.14,0.41-0.41,0.41h-15.79c-0.28,0-0.42,0.14-0.42,0.41v9.78c0,0.28,0.14,0.41,0.42,0.41h13.84
		c0.28,0,0.42,0.14,0.42,0.41v2.57c0,0.28-0.14,0.41-0.42,0.41h-13.84c-0.28,0-0.42,0.14-0.42,0.41v9.91c0,0.28,0.14,0.41,0.42,0.41
		h15.79c0.28,0,0.41,0.14,0.41,0.41v2.61c0,0.28-0.14,0.41-0.41,0.41H343.92z"/>
	<path d="M377.46,31.8c-0.28,0-0.41-0.14-0.41-0.41V4.02c0-0.28-0.14-0.41-0.41-0.41h-9.87c-0.28,0-0.42-0.14-0.42-0.41V0.58
		c0-0.28,0.14-0.41,0.42-0.41h24.41c0.28,0,0.41,0.14,0.41,0.41V3.2c0,0.28-0.14,0.41-0.41,0.41h-9.91c-0.28,0-0.41,0.14-0.41,0.41
		v27.36c0,0.28-0.14,0.41-0.42,0.41H377.46z"/>
	<path d="M389.31,31.8c-0.14,0-0.24-0.05-0.31-0.15c-0.07-0.1-0.08-0.21-0.02-0.35l11.36-30.8c0.08-0.22,0.25-0.33,0.5-0.33h3.56
		c0.25,0,0.42,0.11,0.5,0.33l11.36,30.8l0.04,0.17c0,0.22-0.12,0.33-0.37,0.33h-2.98c-0.25,0-0.41-0.11-0.5-0.33l-2.53-7.09
		c-0.08-0.22-0.25-0.33-0.5-0.33h-13.6c-0.25,0-0.41,0.11-0.5,0.33l-2.53,7.09c-0.08,0.22-0.25,0.33-0.5,0.33H389.31z M408.01,20.65
		c0.3,0,0.42-0.15,0.33-0.46l-5.43-15.38c-0.03-0.17-0.12-0.25-0.29-0.25c-0.11,0-0.21,0.08-0.29,0.25l-5.43,15.38l-0.04,0.17
		c0,0.19,0.12,0.29,0.37,0.29H408.01z"/>
</g>
<g>
</g>
<g>
</g>
<g>
</g>
<g>
</g>
<g>
</g>
<g>
</g>
<g>
</g>
<g>
</g>
<g>
</g>
<g>
</g>
<g>
</g>
<g>
</g>
<g>
</g>
<g>
</g>
<g>
</g>
</svg>
