<?xml version="1.0" encoding="utf-8"?>
<!-- Generator: Adobe Illustrator 28.1.0, SVG Export Plug-In . SVG Version: 6.00 Build 0)  -->
<svg version="1.1" id="Calque_1" xmlns="http://www.w3.org/2000/svg" xmlns:xlink="http://www.w3.org/1999/xlink" x="0px" y="0px"
	 viewBox="0 0 436.1 302.4" style="enable-background:new 0 0 436.1 302.4;" xml:space="preserve">
<style type="text/css">
	.st0{clip-path:url(#SVGID_00000095317138547733142890000000439609380716363650_);}
</style>
<path d="M5.5,62.7c0-12.4,2.9-24.3,8.1-34.5C22.4,11,40.4,0.5,59.7,0.5h12c8.7,0,17.2,2.3,24.7,6.6l0.1,0.1v61.2
	c-6.3-10.5-16.7-21.9-29.1-21.9c-6.3,0-12.9,4.5-12.9,12c0,20.4,47.2,25.8,47.2,78c0,11.4-2.2,22.3-6.2,31.8
	c-8.3,19.5-27.8,32-49,32H28.2c-7.5,0-14.9-1.5-21.7-4.6c0,0-0.1,0-0.1,0v-62.7c7.4,11.1,18.1,21.9,31.3,21.9
	c7.1,0,14.5-4.5,14.5-13.2C52.2,120.3,5.5,113.4,5.5,62.7L5.5,62.7z M181.5,200.2l13-48l-32.2,0.4v-30.6l36.2,0.2l11-45l-47.2-0.5
	V47.7l56.2-0.4l12-47L108.3,0.6v200.1L181.5,200.2z M349.1,200.7h-55.8l-4.2-25.5h-36.3l-4.5,25.5h-55.8L240.8,0.6h66L349.1,200.7z
	 M282.8,132.6c-4.2-27.9-7.8-55.8-10.2-84c-1.2,9.3-2.1,18.9-3.3,28.2c-2.7,18.6-5.7,37.2-9.3,55.8H282.8z M435.5,48.6v-48l-118-0.3
	l11,48l28.1,0.3v152.1h50.9V48.6L435.5,48.6L435.5,48.6z M117.1,300.4l-10.8-85.9H69.5c-3.6,15.2-8.1,30.3-10.3,45.7
	c-1.5-15.5-5.3-30.4-8.6-45.7H13.6L0.6,300.4h32l2.7-35.7c0.5-6.3,0.3-12.8,0.5-19.1c0.5,4.5,1,9,2,13.4l8.6,41.3h24.3l9.3-38.2
	c1.3-5.4,2.3-11,3-16.5c0.3,5.2,0.3,10.4,0.7,15.6l2.3,39.2L117.1,300.4L117.1,300.4z M206.6,300.4h-30.8l-2.3-10.9h-20l-2.5,10.9
	h-30.8l26.7-85.9h36.4L206.6,300.4L206.6,300.4z M170,271.1c-2.3-12-4.3-24-5.6-36.1c-0.7,4-1.2,8.1-1.8,12.1c-1.5,8-3.2,16-5.1,24
	H170z M263.1,235.1v-20.6h-71.1l5.5,20.6h19.4v65.3h29.8v-65.3H263.1z M328,274c-4.6,3.2-9.1,5.5-15.6,5.5
	c-15.2,0-18.9-12.6-18.9-22.2s3.6-22.9,19.4-22.9c6,0,9.8,1.9,13.8,5.2v-24.5c-5.5-1.8-8.8-2.2-14.7-2.2
	c-33.3,0-48.8,21.2-48.8,44.8c0,21.9,13.6,44.2,45.4,44.2c7.1,0,11.3-0.9,17.7-3.1L328,274L328,274z M407.6,300.4v-85.9h-29.8v30.4
	h-14.2v-30.4h-29.8v85.9h29.8v-34.5h14.2v34.5L407.6,300.4L407.6,300.4z"/>
<g>
	<defs>
		<path id="SVGID_1_" d="M5.5,62.7c0-12.4,2.9-24.3,8.1-34.5C22.4,11,40.4,0.5,59.7,0.5h12c8.7,0,17.2,2.3,24.7,6.6l0.1,0.1v61.2
			c-6.3-10.5-16.7-21.9-29.1-21.9c-6.3,0-12.9,4.5-12.9,12c0,20.4,47.2,25.8,47.2,78c0,11.4-2.2,22.3-6.2,31.8
			c-8.3,19.5-27.8,32-49,32H28.2c-7.5,0-14.9-1.5-21.7-4.6c0,0-0.1,0-0.1,0v-62.7c7.4,11.1,18.1,21.9,31.3,21.9
			c7.1,0,14.5-4.5,14.5-13.2C52.2,120.3,5.5,113.4,5.5,62.7L5.5,62.7z M181.5,200.2l13-48l-32.2,0.4v-30.6l36.2,0.2l11-45l-47.2-0.5
			V47.7l56.2-0.4l12-47L108.3,0.6v200.1L181.5,200.2z M349.1,200.7h-55.8l-4.2-25.5h-36.3l-4.5,25.5h-55.8L240.8,0.6h66L349.1,200.7
			z M282.8,132.6c-4.2-27.9-7.8-55.8-10.2-84c-1.2,9.3-2.1,18.9-3.3,28.2c-2.7,18.6-5.7,37.2-9.3,55.8H282.8z M435.5,48.6v-48
			l-118-0.3l11,48l28.1,0.3v152.1h50.9V48.6L435.5,48.6L435.5,48.6z M117.1,300.4l-10.8-85.9H69.5c-3.6,15.2-8.1,30.3-10.3,45.7
			c-1.5-15.5-5.3-30.4-8.6-45.7H13.6L0.6,300.4h32l2.7-35.7c0.5-6.3,0.3-12.8,0.5-19.1c0.5,4.5,1,9,2,13.4l8.6,41.3h24.3l9.3-38.2
			c1.3-5.4,2.3-11,3-16.5c0.3,5.2,0.3,10.4,0.7,15.6l2.3,39.2L117.1,300.4L117.1,300.4z M206.6,300.4h-30.8l-2.3-10.9h-20l-2.5,10.9
			h-30.8l26.7-85.9h36.4L206.6,300.4L206.6,300.4z M170,271.1c-2.3-12-4.3-24-5.6-36.1c-0.7,4-1.2,8.1-1.8,12.1
			c-1.5,8-3.2,16-5.1,24H170z M263.1,235.1v-20.6h-71.1l5.5,20.6h19.4v65.3h29.8v-65.3H263.1z M328,274c-4.6,3.2-9.1,5.5-15.6,5.5
			c-15.2,0-18.9-12.6-18.9-22.2s3.6-22.9,19.4-22.9c6,0,9.8,1.9,13.8,5.2v-24.5c-5.5-1.8-8.8-2.2-14.7-2.2
			c-33.3,0-48.8,21.2-48.8,44.8c0,21.9,13.6,44.2,45.4,44.2c7.1,0,11.3-0.9,17.7-3.1L328,274L328,274z M407.6,300.4v-85.9h-29.8
			v30.4h-14.2v-30.4h-29.8v85.9h29.8v-34.5h14.2v34.5L407.6,300.4L407.6,300.4z"/>
	</defs>
	<clipPath id="SVGID_00000161601944527819410140000017830589751611432358_">
		<use xlink:href="#SVGID_1_"  style="overflow:visible;"/>
	</clipPath>
	<g style="clip-path:url(#SVGID_00000161601944527819410140000017830589751611432358_);">
		<rect x="-30.8" y="-9.8" width="516.7" height="325.2"/>
	</g>
</g>
</svg>
