<svg xmlns="http://www.w3.org/2000/svg" width="27" height="27" viewBox="0 0 27 27" fill="none">
  <path d="M13.5 2.25C7.29 2.25 2.25 7.29 2.25 13.5C2.25 19.71 7.29 24.75 13.5 24.75C19.71 24.75 24.75 19.71 24.75 13.5C24.75 7.29 19.71 2.25 13.5 2.25ZM13.8713 19.125C13.6687 19.1925 13.32 19.1925 13.1175 19.125C11.3625 18.5287 7.425 16.02 7.425 11.7675C7.425 9.88875 8.9325 8.37 10.8 8.37C11.9025 8.37 12.8813 8.89875 13.5 9.73125C14.1075 8.91 15.0975 8.37 16.2 8.37C18.0675 8.37 19.575 9.88875 19.575 11.7675C19.575 16.02 15.6375 18.5287 13.8713 19.125Z" fill="black"/>
</svg>