<svg width="28" height="28" viewBox="0 0 28 28" fill="none" xmlns="http://www.w3.org/2000/svg">
<path d="M24.5141 5.39L16.1981 0.588C14.8401 -0.196 13.1601 -0.196 11.7881 0.588L3.48609 5.39C2.12809 6.174 1.28809 7.63 1.28809 9.212V18.788C1.28809 20.356 2.12809 21.812 3.48609 22.61L11.8021 27.412C13.1601 28.196 14.8401 28.196 16.2121 27.412L24.5281 22.61C25.8861 21.826 26.7261 20.37 26.7261 18.788V9.212C26.7121 7.63 25.8721 6.188 24.5141 5.39ZM14.0001 7.476C15.8061 7.476 17.2621 8.932 17.2621 10.738C17.2621 12.544 15.8061 14 14.0001 14C12.1941 14 10.7381 12.544 10.7381 10.738C10.7381 8.946 12.1941 7.476 14.0001 7.476ZM17.7521 20.524H10.2481C9.11409 20.524 8.45609 19.264 9.08609 18.326C10.0381 16.912 11.8861 15.96 14.0001 15.96C16.1141 15.96 17.9621 16.912 18.9141 18.326C19.5441 19.25 18.8721 20.524 17.7521 20.524Z" fill="black"/>
</svg>
