<svg width="17" height="17" viewBox="0 0 17 17" fill="none" xmlns="http://www.w3.org/2000/svg">
<g clip-path="url(#clip0_936_4443)">
<path d="M4.11778 14.8846C4.30667 15.3002 4.53333 15.7535 4.79778 16.1313C4.30667 15.9046 3.85333 15.6402 3.43778 15.338C3.66444 15.1869 3.89111 15.0358 4.11778 14.8846ZM11.8244 16.1313C12.3156 15.9046 12.7689 15.6402 13.1844 15.338C12.9578 15.1869 12.7311 15.0358 12.5044 14.8846C12.3156 15.3002 12.0889 15.7535 11.8244 16.1313ZM8.72667 16.8869C9.33111 16.8491 9.97333 16.7735 10.54 16.5846C11.0311 15.9424 11.4467 15.2246 11.7867 14.4691C10.8044 14.0158 9.78444 13.7513 8.68889 13.7135V16.8869H8.72667ZM6.12 16.6224C6.72444 16.7735 7.32889 16.8869 7.93333 16.9246V13.7891C6.87556 13.8269 5.81778 14.0913 4.83556 14.5446C5.17556 15.2624 5.62889 15.9424 6.12 16.6224ZM2.79556 8.99131H0C0.113333 11.2202 1.13333 13.3358 2.79556 14.8091C3.09778 14.5446 3.43778 14.318 3.81556 14.1291C3.17333 12.5046 2.83333 10.7669 2.79556 8.99131ZM4.53333 13.7891C5.59111 13.298 6.76222 13.0335 7.93333 12.958V8.99131H3.58889C3.62667 10.6158 3.92889 12.2402 4.53333 13.7891ZM13.0711 8.99131H8.72667V12.958C9.89778 12.9958 11.0689 13.298 12.1267 13.7891C12.7311 12.2402 13.0333 10.6158 13.0711 8.99131ZM13.8644 8.99131C13.8267 10.7669 13.4867 12.5046 12.8444 14.1669C13.1844 14.3558 13.5244 14.5824 13.8644 14.8469C15.5644 13.3735 16.5467 11.258 16.66 8.99131H13.8644ZM13.8644 8.19798H16.6222C16.5089 5.96909 15.5267 3.85354 13.8267 2.3802C13.5244 2.60687 13.1844 2.83354 12.8444 3.02243C13.4867 4.68465 13.8267 6.42243 13.8644 8.19798ZM13.1844 1.85132C12.7689 1.54909 12.3156 1.28465 11.8244 1.05798C12.0889 1.47354 12.3156 1.88909 12.5044 2.30465C12.7689 2.15354 12.9956 2.00243 13.1844 1.85132ZM10.54 0.566871C9.93556 0.41576 9.33111 0.302426 8.72667 0.264648V3.4002C9.78444 3.36243 10.8422 3.09798 11.8244 2.64465C11.4844 1.92687 11.0311 1.20909 10.54 0.566871ZM4.83556 2.68243C5.81778 3.13576 6.83778 3.4002 7.93333 3.43798V0.264648C7.32889 0.302426 6.68667 0.377982 6.12 0.566871C5.62889 1.20909 5.17556 1.92687 4.83556 2.68243ZM4.79778 1.05798C4.30667 1.28465 3.85333 1.54909 3.43778 1.85132C3.66444 2.00243 3.89111 2.15354 4.11778 2.30465C4.34444 1.85132 4.57111 1.43576 4.79778 1.05798ZM3.81556 3.02243C3.47556 2.83354 3.13556 2.60687 2.83333 2.34243C1.13333 3.85354 0.113333 5.96909 0.0377778 8.19798H2.79556C2.83333 6.42243 3.17333 4.68465 3.81556 3.02243ZM3.58889 8.19798H7.93333V4.23132C6.76222 4.19354 5.59111 3.89132 4.53333 3.4002C3.92889 4.94909 3.62667 6.53576 3.58889 8.19798ZM12.1267 3.4002C11.0689 3.89132 9.89778 4.15576 8.72667 4.23132V8.19798H13.0711C13.0333 6.53576 12.7311 4.94909 12.1267 3.4002Z" fill="white"/>
</g>
<defs>
<clipPath id="clip0_936_4443">
<rect width="17" height="17" fill="white"/>
</clipPath>
</defs>
</svg>
